<?xml version="1.0" standalone="no"?>
<!DOCTYPE svg PUBLIC "-//W3C//DTD SVG 20010904//EN"
 "http://www.w3.org/TR/2001/REC-SVG-20010904/DTD/svg10.dtd">
<svg version="1.0" xmlns="http://www.w3.org/2000/svg"
 width="1280.000000pt" height="1280.000000pt" viewBox="0 0 1280.000000 1280.000000"
 preserveAspectRatio="xMidYMid meet">
<metadata>
Created by potrace 1.14, written by Peter Selinger 2001-2017
</metadata>
<g transform="translate(0.000000,1280.000000) scale(0.100000,-0.100000)"
fill="#000000" stroke="none">
<path d="M4045 10300 c-1182 -147 -2188 -275 -2235 -284 -101 -20 -217 -65
-326 -126 -99 -56 -252 -206 -307 -300 -46 -79 -85 -198 -98 -300 -6 -48 -9
-1085 -7 -2925 3 -2724 4 -2853 21 -2915 66 -234 230 -425 462 -540 150 -74
238 -93 705 -149 3112 -377 4067 -491 4098 -491 32 0 1173 134 3972 466 349
41 670 84 712 94 342 85 597 321 675 627 17 64 18 237 18 2963 0 2800 -1 2897
-19 2965 -40 149 -109 266 -223 376 -147 143 -321 228 -539 263 -121 20 -4700
546 -4734 545 -14 -1 -992 -122 -2175 -269z m701 -1145 c362 -18 694 -135 951
-334 258 -200 382 -432 438 -818 31 -217 37 -327 42 -780 l6 -463 -686 0 -685
0 -5 608 c-6 705 -13 789 -77 849 -40 37 -82 51 -155 52 -84 1 -134 -15 -176
-58 -47 -47 -67 -131 -79 -340 -12 -205 -12 -2722 0 -2916 16 -264 40 -327
139 -370 43 -19 158 -19 204 0 54 22 94 78 112 156 22 98 35 392 35 802 l0
357 687 0 686 0 -6 -342 c-16 -857 -89 -1142 -366 -1419 -120 -119 -244 -208
-396 -284 -181 -90 -320 -132 -550 -167 -115 -17 -488 -17 -615 1 -420 57
-710 182 -930 401 -242 240 -331 523 -370 1165 -13 220 -13 2189 0 2445 18
354 45 499 126 669 194 411 570 676 1089 767 102 18 318 32 415 28 36 -2 111
-6 166 -9z m3769 -6 c390 -38 723 -178 964 -405 188 -177 281 -361 335 -664
38 -209 48 -371 53 -847 l5 -473 -685 0 -685 0 -5 623 c-6 737 -11 783 -91
849 -59 48 -216 51 -286 4 -75 -50 -95 -122 -110 -396 -12 -229 -12 -2634 0
-2857 12 -209 29 -296 71 -346 40 -49 86 -67 169 -67 77 0 124 16 161 57 71
76 80 154 86 771 l6 502 683 0 684 0 0 -237 c0 -591 -50 -999 -150 -1218 -155
-345 -580 -647 -1030 -734 -369 -70 -817 -45 -1150 65 -350 116 -596 317 -731
599 -57 118 -100 279 -128 472 -44 306 -46 371 -46 1628 0 1232 4 1390 41
1605 66 377 322 713 684 895 324 163 693 218 1155 174z"/>
</g>
</svg>
